<svg xmlns="http://www.w3.org/2000/svg" viewBox="0 0 700 320" font-family="-apple-system,'PingFang SC',sans-serif">
  <defs><filter id="rough" x="-5%" y="-5%" width="110%" height="110%"><feTurbulence type="fractalNoise" baseFrequency="0.014" numOctaves="2" seed="21" result="n"/><feDisplacementMap in="SourceGraphic" in2="n" scale="2.2"/></filter></defs>
  <rect x="0" y="0" width="700" height="320" rx="14" fill="#fbfaf8"/>
  <text x="28" y="36" font-size="18" font-weight="700" fill="#1a1a19">Instructions are a filing cabinet, not a stuffed box</text>
  <text x="28" y="58" font-size="12.5" fill="#6b6b64">The entry file only answers &quot;where to look&quot;; the topic docs answer &quot;how exactly to do it&quot;</text>
  <g filter="url(#rough)" stroke="#2a2a28" stroke-width="1.7">
    <rect x="190" y="84" width="320" height="56" rx="8" fill="#fdf6f1"/>
  </g>
  <text x="350" y="108" font-size="14" font-weight="700" fill="#C15F3C" text-anchor="middle">Entry AGENTS.md / CLAUDE.md</text>
  <text x="350" y="126" font-size="9" fill="#6b6b64" text-anchor="middle">&#8804;200 lines · overview + &#8804;15 hard constraints + links · always loaded</text>
  <g filter="url(#rough)" stroke="#2a2a28" stroke-width="1.5" fill="none">
    <path d="M260 142 L210 178 M210 178 L219 176 M210 178 L214 169" stroke="#C15F3C"/>
    <path d="M350 142 L350 176 M350 176 L345 168 M350 176 L355 168" stroke="#C15F3C"/>
    <path d="M440 142 L490 178 M490 178 L481 176 M490 178 L486 169" stroke="#C15F3C"/>
    <rect x="60" y="182" width="170" height="46" rx="8" fill="#ffffff"/>
    <rect x="265" y="182" width="170" height="46" rx="8" fill="#ffffff"/>
    <rect x="470" y="182" width="170" height="46" rx="8" fill="#ffffff"/>
    <rect x="160" y="252" width="170" height="46" rx="8" fill="#ffffff"/>
    <rect x="370" y="252" width="170" height="46" rx="8" fill="#ffffff"/>
  </g>
  <g font-size="12.5" font-weight="700" fill="#1a1a19" text-anchor="middle">
    <text x="145" y="210">docs/api patterns</text>
    <text x="350" y="210">docs/db rules</text>
    <text x="555" y="210">docs/test standards</text>
    <text x="245" y="280">PRD / SPEC</text>
    <text x="455" y="280">architecture</text>
  </g>
  <text x="350" y="313" font-size="11" fill="#9a9a92" text-anchor="middle">pulled on demand (50&#8211;150 lines each)</text>
</svg>
